<mxfile host="drawio-plugin" modified="2023-09-02T07:51:54.662Z" agent="5.0 (Windows NT 10.0; Win64; x64) AppleWebKit/537.36 (KHTML, like Gecko) Chrome/111.0.0.0 Safari/537.36" etag="n4acAqQFp3MRZqO2EmJY" version="20.5.3" type="embed"><diagram name="Page-1" id="6133507b-19e7-1e82-6fc7-422aa6c4b21f"><mxGraphModel dx="871" dy="551" grid="1" gridSize="10" guides="1" tooltips="1" connect="1" arrows="1" fold="1" page="1" pageScale="1" pageWidth="1100" pageHeight="850" background="none" math="0" shadow="0"><root><mxCell id="0"/><mxCell id="1" parent="0"/><mxCell id="72Dgkg_9QdZeTB99kcBF-12" style="edgeStyle=orthogonalEdgeStyle;rounded=0;orthogonalLoop=1;jettySize=auto;html=1;" parent="1" source="72Dgkg_9QdZeTB99kcBF-2" target="72Dgkg_9QdZeTB99kcBF-10" edge="1"><mxGeometry relative="1" as="geometry"/></mxCell><mxCell id="72Dgkg_9QdZeTB99kcBF-15" style="edgeStyle=orthogonalEdgeStyle;rounded=0;orthogonalLoop=1;jettySize=auto;html=1;" parent="1" source="72Dgkg_9QdZeTB99kcBF-2" target="72Dgkg_9QdZeTB99kcBF-11" edge="1"><mxGeometry relative="1" as="geometry"/></mxCell><mxCell id="72Dgkg_9QdZeTB99kcBF-17" style="edgeStyle=orthogonalEdgeStyle;rounded=0;orthogonalLoop=1;jettySize=auto;html=1;" parent="1" source="72Dgkg_9QdZeTB99kcBF-2" target="72Dgkg_9QdZeTB99kcBF-16" edge="1"><mxGeometry relative="1" as="geometry"/></mxCell><mxCell id="72Dgkg_9QdZeTB99kcBF-2" value="Exception&amp;nbsp;" style="rounded=0;whiteSpace=wrap;html=1;" parent="1" vertex="1"><mxGeometry x="330" y="210" width="120" height="60" as="geometry"/></mxCell><mxCell id="72Dgkg_9QdZeTB99kcBF-22" style="edgeStyle=orthogonalEdgeStyle;rounded=0;orthogonalLoop=1;jettySize=auto;html=1;" parent="1" source="72Dgkg_9QdZeTB99kcBF-3" target="72Dgkg_9QdZeTB99kcBF-21" edge="1"><mxGeometry relative="1" as="geometry"/></mxCell><mxCell id="72Dgkg_9QdZeTB99kcBF-27" style="edgeStyle=orthogonalEdgeStyle;rounded=0;orthogonalLoop=1;jettySize=auto;html=1;" parent="1" source="72Dgkg_9QdZeTB99kcBF-3" target="72Dgkg_9QdZeTB99kcBF-26" edge="1"><mxGeometry relative="1" as="geometry"/></mxCell><mxCell id="72Dgkg_9QdZeTB99kcBF-3" value="Error&amp;nbsp;" style="rounded=0;whiteSpace=wrap;html=1;" parent="1" vertex="1"><mxGeometry x="670" y="200" width="120" height="60" as="geometry"/></mxCell><mxCell id="72Dgkg_9QdZeTB99kcBF-6" style="edgeStyle=orthogonalEdgeStyle;rounded=0;orthogonalLoop=1;jettySize=auto;html=1;" parent="1" source="72Dgkg_9QdZeTB99kcBF-5" target="72Dgkg_9QdZeTB99kcBF-2" edge="1"><mxGeometry relative="1" as="geometry"/></mxCell><mxCell id="72Dgkg_9QdZeTB99kcBF-7" style="edgeStyle=orthogonalEdgeStyle;rounded=0;orthogonalLoop=1;jettySize=auto;html=1;" parent="1" source="72Dgkg_9QdZeTB99kcBF-5" target="72Dgkg_9QdZeTB99kcBF-3" edge="1"><mxGeometry relative="1" as="geometry"/></mxCell><mxCell id="72Dgkg_9QdZeTB99kcBF-5" value="Throwable" style="rounded=0;whiteSpace=wrap;html=1;" parent="1" vertex="1"><mxGeometry x="490" y="110" width="120" height="60" as="geometry"/></mxCell><mxCell id="72Dgkg_9QdZeTB99kcBF-10" value="IOException&amp;nbsp;" style="rounded=0;whiteSpace=wrap;html=1;" parent="1" vertex="1"><mxGeometry x="220" y="310" width="120" height="60" as="geometry"/></mxCell><mxCell id="72Dgkg_9QdZeTB99kcBF-11" value="RuntimeException&amp;nbsp;" style="rounded=0;whiteSpace=wrap;html=1;" parent="1" vertex="1"><mxGeometry x="430" y="310" width="120" height="60" as="geometry"/></mxCell><mxCell id="72Dgkg_9QdZeTB99kcBF-16" value="SQLException&amp;nbsp;" style="rounded=0;whiteSpace=wrap;html=1;" parent="1" vertex="1"><mxGeometry x="330" y="410" width="120" height="60" as="geometry"/></mxCell><mxCell id="72Dgkg_9QdZeTB99kcBF-19" value="StackOverflowError" style="rounded=0;whiteSpace=wrap;html=1;" parent="1" vertex="1"><mxGeometry x="930" y="390" width="120" height="60" as="geometry"/></mxCell><mxCell id="72Dgkg_9QdZeTB99kcBF-23" style="edgeStyle=orthogonalEdgeStyle;rounded=0;orthogonalLoop=1;jettySize=auto;html=1;" parent="1" source="72Dgkg_9QdZeTB99kcBF-21" target="72Dgkg_9QdZeTB99kcBF-19" edge="1"><mxGeometry relative="1" as="geometry"/></mxCell><mxCell id="72Dgkg_9QdZeTB99kcBF-25" style="edgeStyle=orthogonalEdgeStyle;rounded=0;orthogonalLoop=1;jettySize=auto;html=1;" parent="1" source="72Dgkg_9QdZeTB99kcBF-21" target="72Dgkg_9QdZeTB99kcBF-24" edge="1"><mxGeometry relative="1" as="geometry"/></mxCell><mxCell id="72Dgkg_9QdZeTB99kcBF-21" value="VirtualMachineError" style="rounded=0;whiteSpace=wrap;html=1;" parent="1" vertex="1"><mxGeometry x="840" y="290" width="120" height="60" as="geometry"/></mxCell><mxCell id="72Dgkg_9QdZeTB99kcBF-24" value="OutOfMemoryError" style="rounded=0;whiteSpace=wrap;html=1;" parent="1" vertex="1"><mxGeometry x="780" y="390" width="120" height="60" as="geometry"/></mxCell><mxCell id="72Dgkg_9QdZeTB99kcBF-26" value="LinkageError" style="rounded=0;whiteSpace=wrap;html=1;" parent="1" vertex="1"><mxGeometry x="670" y="300" width="120" height="60" as="geometry"/></mxCell></root></mxGraphModel></diagram></mxfile>